<svg width="100" height="50" xmlns="http://www.w3.org/2000/svg" stroke="null">
 <g stroke="null">
  <title stroke="null">Layer 1</title>
  <ellipse fill="#FFFFFF" ry="17.40253" rx="17.24433" id="svg_6" cy="25" cx="50" stroke="black"/>
  <line stroke="black" x1="16.64568" y1="24.71875" x2="81.53923" y2="24.71875" id="svg_1"/>
  <path stroke="#000000" fill="#FFFFFF" opacity="undefined" d="m37.98446,20.50329l24.03107,0l0,8.99342l-24.03107,0l0,-8.99342z" id="svg_2"/>
  <path stroke="#FFFFFF" transform="matrix(1 0 0 1 0 0) matrix(1 0 0 1 0 0) rotate(137 68.31 6.6527)" stroke-width="0" id="svg_9" d="m66.12222,8.96321c-0.51575,-0.12849 -0.44805,-0.20631 0.8057,-0.92662c0.63301,-0.36372 1.15101,-0.67187 1.15101,-0.68479c0,-0.01291 -1.74809,-0.02348 -3.8848,-0.02348l-3.88468,0l0,-0.68121l0,-0.68121l3.91555,0c3.01909,0 3.8818,-0.02053 3.76836,-0.08964c-0.081,-0.0493 -0.63338,-0.37643 -1.2273,-0.72696c-1.11971,-0.66076 -1.11933,-0.83796 0.00177,-0.89288c0.55791,-0.02734 9.24421,2.07283 9.54282,2.30724c-2.89332,0.837 -6.35187,1.71312 -9.53782,2.48561c-0.16791,0 -0.46078,-0.03872 -0.6506,-0.08605z" fill="#000000"/>
  <path stroke="#FFFFFF" transform="rotate(137 72.81 11.8089)" stroke-width="0" id="svg_11" d="m70.6222,14.11943c-0.51575,-0.12849 -0.44806,-0.20631 0.80569,-0.92662c0.63301,-0.36372 1.15102,-0.67188 1.15102,-0.6848c0,-0.01291 -1.74809,-0.02348 -3.8848,-0.02348l-3.88468,0l0,-0.68122l0,-0.6812l3.91555,0c3.01909,0 3.8818,-0.02053 3.76835,-0.08964c-0.08099,-0.0493 -0.63337,-0.37643 -1.22729,-0.72696c-1.11971,-0.66076 -1.11933,-0.83796 0.00177,-0.89288c0.55791,-0.02734 9.24421,2.07282 9.54282,2.30724c-2.89332,0.837 -6.35187,1.71312 -9.53782,2.48561c-0.16791,0 -0.46079,-0.03872 -0.6506,-0.08605z" fill="#000000"/>
 </g>

</svg>