<svg width="100" height="50" xmlns="http://www.w3.org/2000/svg" style="vector-effect: non-scaling-stroke;" stroke="null">
 <g stroke="null">
  <title stroke="null">Layer 1</title>
  <path stroke="black" id="svg_1" d="m19.77784,26.33334l20,0l-20,0z" opacity="undefined" stroke-width="2.5"/>
  <polygon stroke="black" id="svg_2" fill="none" points="39.152334690093994,16.530871391296387 59.152334690093994,26.530874252319336 39.152334690093994,36.53086853027344 " stroke-width="2.5"/>
  <line stroke="black" id="svg_3" y2="26.33334" x2="79.65447" y1="26.33334" x1="59.77784" stroke-width="2.5"/>
  <line stroke="#000000" id="svg_4" y2="36.33334" x2="59.77784" y1="16.33334" x1="59.77784" stroke-width="2.5"/>
  <path stroke="#000" style="vector-effect: non-scaling-stroke;" transform="rotate(-155 51.416 8.41661)" stroke-width="0" id="svg_5" d="m50.12378,8.39857l1.29219,-7.49869l1.2922,7.49869l-0.6461,0l0,7.53477l-1.29219,0l0,-7.53477l-0.6461,0z" fill="#000000"/>
  <path stroke="#000" transform="rotate(-155 56.2445 10.5236)" stroke-width="0" id="svg_6" d="m54.95227,10.50555l1.29219,-7.49869l1.2922,7.49869l-0.6461,0l0,7.53477l-1.29219,0l0,-7.53477l-0.6461,0z" fill="#000000"/>
 </g>

</svg>